# xmcd CD database file
#
# Track frame offsets:
#	150
#	16886
#	35742
#	60822
#	81019
#	96738
#	111113
#	127196
#	142830
#	160892
#	178966
#	188264
#	205002
#	219377
#
# Disc length: 3087 seconds
#
# Revision: 0
# Processed by: cddbd v1.5.2PL0 Copyright (c) Steve Scherf et al.
# Submitted via: jetAudio 7
#
DISCID=bb0c0d0e
DTITLE=Various Artist - 云之南.彩云之南的韵
DYEAR=1900
DGENRE=folk
TTITLE0=有一个美丽的地方
TTITLE1=婚誓
TTITLE2=月光下的凤尾竹
TTITLE3=马铃儿响来玉鸟儿唱
TTITLE4=长湖水清又凉
TTITLE5=缅桂花开十里香
TTITLE6=一朵鲜花鲜又鲜
TTITLE7=绣荷包
TTITLE8=蝴蝶泉边
TTITLE9=小河淌水
TTITLE10=放马山歌
TTITLE11=金线挑来银线绣
TTITLE12=弥渡山歌
TTITLE13=远方的客人请你留下来
EXTD=
EXTT0=
EXTT1=
EXTT2=
EXTT3=
EXTT4=
EXTT5=
EXTT6=
EXTT7=
EXTT8=
EXTT9=
EXTT10=
EXTT11=
EXTT12=
EXTT13=
PLAYORDER=
